<svg width="900" height="996" xmlns="http://www.w3.org/2000/svg">
  <rect width="100%" height="100%" fill="#0b0b0b" rx="12"/>
  <style>
    text {
      font-family: 'JetBrains Mono', monospace;
      font-size: 16px;
      white-space: pre;
    }
  </style>
  <text x="20" y="30" fill="#e6e6e6">██╗   ██╗██╗   ██╗ ██████╗ </text><text x="20" y="52" fill="#e6e6e6">╚██╗ ██╔╝██║   ██║██╔════╝ </text><text x="20" y="74" fill="#e6e6e6"> ╚████╔╝ ██║   ██║██║  ███╗</text><text x="20" y="96" fill="#e6e6e6">  ╚██╔╝  ██║   ██║██║   ██║</text><text x="20" y="118" fill="#e6e6e6">   ██║   ╚██████╔╝╚██████╔╝</text><text x="20" y="140" fill="#e6e6e6">   ╚═╝    ╚═════╝  ╚═════╝ </text><text x="20" y="162" fill="#e6e6e6"></text><text x="20" y="184" fill="#e6e6e6">───────────────────────────────────────────</text><text x="20" y="206" fill="#e6e6e6">USER      ▸ Yug Shrivastava</text><text x="20" y="228" fill="#e6e6e6">OS        ▸ Linux | Windows</text><text x="20" y="250" fill="#e6e6e6">EDITOR    ▸ Zed · VS Code</text><text x="20" y="272" fill="#e6e6e6">PL        ▸ Go · TypeScript · Python · C++</text><text x="20" y="294" fill="#e6e6e6">LANG      ▸ English · Hindi</text><text x="20" y="316" fill="#e6e6e6">───────────────────────────────────────────</text><text x="20" y="338" fill="#e6e6e6"></text><text x="20" y="360" fill="#39ff14">$</text><text x="35" y="360" fill="#e6e6e6"> whoami</text><text x="20" y="382" fill="#e6e6e6">&gt; engineer · designs for failure, hopes for uptime</text><text x="20" y="404" fill="#e6e6e6"></text><text x="20" y="426" fill="#39ff14">$</text><text x="35" y="426" fill="#e6e6e6"> github --stats</text><text x="20" y="448" fill="#e6e6e6">&gt; Stars .......... 5</text><text x="20" y="470" fill="#e6e6e6">&gt; Repositories ... 41</text><text x="20" y="492" fill="#e6e6e6">&gt; Commits ........ 1551</text><text x="20" y="514" fill="#e6e6e6"></text><text x="20" y="536" fill="#39ff14">$</text><text x="35" y="536" fill="#e6e6e6"> stack --list --formatted</text><text x="20" y="558" fill="#e6e6e6">&gt; backend</text><text x="20" y="580" fill="#e6e6e6">  · Node.js · Express.js · Vitest · Gin · FastAPI · REST · GraphQL</text><text x="20" y="602" fill="#e6e6e6">&gt; frontend</text><text x="20" y="624" fill="#e6e6e6">  · React.js · Next.js · Tailwind CSS · Webpack · Vite</text><text x="20" y="646" fill="#e6e6e6">&gt; database</text><text x="20" y="668" fill="#e6e6e6">  · PostgreSQL · MongoDB · Redis · MySQL</text><text x="20" y="690" fill="#e6e6e6">&gt; ai/automation</text><text x="20" y="712" fill="#e6e6e6">  · LangChain · LangGraph · PyTorch · MCP</text><text x="20" y="734" fill="#e6e6e6">&gt; deployment/tools</text><text x="20" y="756" fill="#e6e6e6">  · Docker · AWS · Nginx · YAML · Figma · Git · Cloudflare</text><text x="20" y="778" fill="#e6e6e6"></text><text x="20" y="800" fill="#39ff14">$</text><text x="35" y="800" fill="#e6e6e6"> current --focus</text><text x="20" y="822" fill="#e6e6e6">&gt; Studying backend architecture &amp; system design</text><text x="20" y="844" fill="#e6e6e6"></text><text x="20" y="866" fill="#39ff14">$</text><text x="35" y="866" fill="#e6e6e6"> uptime</text><text x="20" y="888" fill="#e6e6e6">&gt; online · 21y 2m 3d 18h 22m</text><text x="20" y="910" fill="#e6e6e6"></text><text x="20" y="932" fill="#39ff14">$</text><text x="35" y="932" fill="#e6e6e6"> quote</text><text x="20" y="954" fill="#e6e6e6">&gt; So many bugs, so little time.</text>
</svg>