<svg width="900" height="754" xmlns="http://www.w3.org/2000/svg">
  <rect width="100%" height="100%" fill="#0b0b0b" rx="12"/>
  <style>
    text {
      font-family: 'JetBrains Mono', monospace;
      font-size: 16px;
      white-space: pre;
    }
  </style>
  <text x="20" y="30" fill="#e6e6e6">██╗   ██╗██╗   ██╗ ██████╗ </text><text x="20" y="52" fill="#e6e6e6">╚██╗ ██╔╝██║   ██║██╔════╝ </text><text x="20" y="74" fill="#e6e6e6"> ╚████╔╝ ██║   ██║██║  ███╗</text><text x="20" y="96" fill="#e6e6e6">  ╚██╔╝  ██║   ██║██║   ██║</text><text x="20" y="118" fill="#e6e6e6">   ██║   ╚██████╔╝╚██████╔╝</text><text x="20" y="140" fill="#e6e6e6">   ╚═╝    ╚═════╝  ╚═════╝ </text><text x="20" y="162" fill="#e6e6e6"></text><text x="20" y="184" fill="#e6e6e6">────────────────────────────────────────</text><text x="20" y="206" fill="#e6e6e6">USER      ▸ Yug Shrivastava</text><text x="20" y="228" fill="#e6e6e6">OS        ▸ Linux | Windows</text><text x="20" y="250" fill="#e6e6e6">EDITOR    ▸ Zed · VS Code</text><text x="20" y="272" fill="#e6e6e6">STACK     ▸ Go · TypeScript · Python · C++</text><text x="20" y="294" fill="#e6e6e6">LANG      ▸ English · Hindi</text><text x="20" y="316" fill="#e6e6e6">────────────────────────────────────────</text><text x="20" y="338" fill="#e6e6e6"></text><text x="20" y="360" fill="#39ff14">$</text><text x="35" y="360" fill="#e6e6e6"> whoami</text><text x="20" y="382" fill="#e6e6e6">> engineer · builder · curious by default</text><text x="20" y="404" fill="#e6e6e6"></text><text x="20" y="426" fill="#39ff14">$</text><text x="35" y="426" fill="#e6e6e6"> github --stats</text><text x="20" y="448" fill="#e6e6e6">Stars .......... 5</text><text x="20" y="470" fill="#e6e6e6">Repositories ... 41</text><text x="20" y="492" fill="#e6e6e6">Commits ........ 1526</text><text x="20" y="514" fill="#e6e6e6">Line of Code .... 326</text><text x="20" y="536" fill="#e6e6e6"></text><text x="20" y="558" fill="#39ff14">$</text><text x="35" y="558" fill="#e6e6e6"> learning</text><text x="20" y="580" fill="#e6e6e6">> Scaling services for millions of users</text><text x="20" y="602" fill="#e6e6e6"></text><text x="20" y="624" fill="#39ff14">$</text><text x="35" y="624" fill="#e6e6e6"> uptime</text><text x="20" y="646" fill="#e6e6e6">> online · 2026-02-06 14:07 UTC</text><text x="20" y="668" fill="#e6e6e6"></text><text x="20" y="690" fill="#39ff14">$</text><text x="35" y="690" fill="#e6e6e6"> quote</text><text x="20" y="712" fill="#e6e6e6">> Performance is not about faster code, it's about smarter architecture.</text>
</svg>